<svg version="1.1" viewBox="0.0 0.0 100.0 30.0" fill="none" stroke="none" stroke-linecap="square" stroke-miterlimit="10" xmlns:xlink="http://www.w3.org/1999/xlink" xmlns="http://www.w3.org/2000/svg"><clipPath id="p.0"><path d="m0 0l100.0 0l0 30.0l-100.0 0l0 -30.0z" clip-rule="nonzero"/></clipPath><g clip-path="url(#p.0)"><path fill="#000000" fill-opacity="0.0" d="m0 0l100.0 0l0 30.0l-100.0 0z" fill-rule="evenodd"/><g mask="url(#mask-p.1)"><use xlink:href="#p.1" transform="matrix(1.0 0.0 0.0 -1.0 0.0 47.395062049083535)"/></g><defs><mask id="mask-p.1" maskUnits="userSpaceOnUse" x="-34.54605409698714" y="-26.965587873096016" width="177.3193109749413" height="110.55085361501737"><linearGradient gradientUnits="userSpaceOnUse" id="gradient-p.1" x1="6.339449316230614" y1="23.697214929502547" x2="6.339427741672416" y2="29.657053973848544"><stop offset="0%" stop-color="#ffffff" stop-opacity="0.25"/><stop offset="100%" stop-color="#ffffff" stop-opacity="0.0"/></linearGradient><rect fill="url(#gradient-p.1)" x="-34.54605409698714" y="-26.965587873096016" width="177.3193109749413" height="110.55085361501737"/></mask></defs><g id="p.1"><g filter="url(#shadowFilter-p.2)"><use xlink:href="#p.2" transform="matrix(1.0 0.0 0.0 1.0 4.114496587926509 5.663118897637792)"/></g><defs><filter id="shadowFilter-p.2" filterUnits="userSpaceOnUse"><feGaussianBlur in="SourceAlpha" stdDeviation="15.0" result="blur"/><feComponentTransfer in="blur" color-interpolation-filters="sRGB"><feFuncR type="linear" slope="0" intercept="0.7176471"/><feFuncG type="linear" slope="0" intercept="0.7176471"/><feFuncB type="linear" slope="0" intercept="0.7176471"/><feFuncA type="linear" slope="1.0" intercept="0"/></feComponentTransfer></filter></defs><g id="p.2"><path fill="#efc88b" d="m8.556287 3.6466775l7.116522 1.4052176l0.13417053 -1.4052176zm34.37011 0l7.1165237 1.4052176l0.13417053 -1.4052176zm-11.370342 3.004414c0 0 0 0 0 0c5.722046E-6 0 1.1444092E-5 0 1.7166138E-5 0l-1.5258789E-5 0l-1.9073486E-6 0l0 0zm37.32924 -5.068779E-4l6.86187 1.344121l0.30393982 -1.344121zm-60.616516 0l7.132951 1.4052176l0.11774254 -1.4052176zm-0.2847705 3.0039067l7.1329513 1.4052181l0.13417053 -1.4052181zm11.1523285 0l7.1329517 1.4052181l0.13690758 -1.4052181zm35.398674 0l7.1329536 1.4052181l0.13417053 -1.4052181zm11.43737 0.9673605c0.22452545 0 0.336792 0.20874596 0.336792 0.62623787c0 0.9164467 -0.16793823 1.37467 -0.5038223 1.37467l-0.9255066 0l0.18619537 -2.000908zm-58.275883 2.031456l7.132951 1.4103088l0.13690948 -1.4103088zm34.37011 0l7.13295 1.4103088l0.13690948 -1.4103088zm-12.0624485 -1.4357662c0.5950985 0 0.8926468 0.17650127 0.8926468 0.52950287c-0.010953903 0.19007683 -0.016429901 0.29529858 -0.016429901 0.3156643l-0.10131264 1.0946445c-0.06754112 0.6245413 -0.3587017 0.93681145 -0.87347794 0.93681145l-0.5394211 0l0.26834106 -2.8766232zm48.418205 0.21892929l0 4.7553377l-1.2267075 0l0.9912262 -4.7553377zm-71.010635 4.220744l7.1329513 1.4103088l0.13417053 -1.4103088zm58.125282 1.1251926c0.24643707 0 0.3696518 0.24099159 0.3696518 0.72297287c0 1.0623989 -0.19623566 1.5935993 -0.588707 1.5935993l-1.0432434 0l0.21904755 -2.3165722zm-58.41279 1.8787136l7.1356897 1.4103088l0.13417053 -1.4103088zm11.155066 0l7.1329517 1.4103088l0.13417053 -1.4103088zm-11.4398365 3.0344563l7.1329513 1.4103088l0.13417053 -1.4103088zm11.155066 0l7.1329517 1.4103088l0.13417053 -1.4103088zm-1.6672821 -18.0489l-1.8510075 19.550854l3.1981907 0l0.67085457 -7.2551994l1.6613808 0l5.6930943 1.1251926l0.13417053 -1.4103088l-4.733633 0l0.24472046 -2.510911l4.639513 0.9173126l0.13417053 -1.4103088l-4.7256336 0l0.13397789 -1.37467l-2.7272243 0l0.23548317 -2.6271458l2.9627075 0l0.2566223 -1.4432349l0 0l4.3021755 0.84754515l0.11774254 -1.4052176l-4.320759 0l0.5341263 -3.0039072zm10.903154 3.0039072l-1.5498085 16.546946l2.828537 0l0.4517994 -4.816435l0.40525055 0l0.63799477 4.816435l3.1461658 0l-0.16295624 -0.9358463l4.2697334 0.84420204l0.13417053 -1.4103088l-4.5024796 0l-0.45880508 -2.6348553l0 0l5.111885 1.0107079l0.13417053 -1.4103088l-5.3156357 0l-0.16844559 -0.96735954c0.38045502 -0.3981781 0.6952095 -0.916111 0.9442673 -1.5537987l0 0l4.6931534 0.9275608l0.13417053 -1.4103088l-4.6584473 0c0.09518051 -0.30457973 0.17775345 -0.63212585 0.24773026 -0.98263454c0.09922409 -0.49489403 0.18022537 -0.9831505 0.24300766 -1.4647684l0 0l4.31831 0.8538046l0.13417053 -1.4103088l-4.387745 0c0.065006256 -0.63638306 0.09750748 -1.2609243 0.09750748 -1.8736238c0 -0.20697117 -0.004627228 -0.40616035 -0.013885498 -0.5975704l0 0l4.4547234 0.8775959l0.13690567 -1.4052181l-4.630867 0c-0.15754318 -1.5360527 -0.66550446 -2.4830089 -1.5238838 -2.840866l0 0l6.3053513 1.242177l0.117744446 -1.4052176l-7.2506943 0l0.002571106 5.068779E-4l0 0c-0.017936707 -3.3807755E-4 -0.035972595 -5.068779E-4 -0.054109573 -5.068779E-4zm12.129637 0l-1.5498085 16.546946l5.939106 0l0.09351349 -0.981308l0 0l4.4996758 0.8896637l0.13417053 -1.4103088l-4.5842323 0l0.23948288 -2.513155l0 0l4.498089 0.88900757l0.13417053 -1.4103088l-4.5825806 0l0.005821228 -0.06109619l-3.113308 0l0.20262527 -2.128191l2.5054321 0l0.039367676 -0.41133308l0 0l5.0932426 1.0070229l0.13417053 -1.4103088l-5.1888123 0l0.20954132 -2.1892881l-2.524601 0l0.20262527 -2.128192l2.7436523 0l0.20578766 -1.2236567l0 0l4.789913 0.9436312l0.13417053 -1.4052181l-4.8464546 0l0.42048264 -2.5002904l0 0l0 0l0 0l4.5765724 0.9016013l0 0l0.11774063 -1.4052176zm11.337318 -3.0039072l-1.8510056 19.550854l7.11652 0l0.09177017 -0.97520065l0 0l4.4687805 0.88355637l0.13417053 -1.4103088l-4.553383 0l0.23596954 -2.5075512l0 0l0 0l0 0l4.468014 0.8834038l0.13417053 -1.4103088l-4.5526047 0l0.044078827 -0.46840477l-3.9183311 0l0.21905518 -2.3776693l2.0264587 0l6.3346786 1.2524767l0.13417053 -1.4103088l-5.2846146 0l0.25286102 -2.6182404l0 0l5.182354 1.024642l0.13417053 -1.4103088l-5.279278 0l0.1327591 -1.37467l-3.1981888 0l0.23548126 -2.6271458l3.4501038 0l0.26993942 -1.5466843l0 0l4.8272934 0.9509945l0.11774063 -1.4052176l-4.865761 0l0.5242653 -3.0039072zm11.912556 3.0039072l-1.5498085 16.546946l4.476921 0c0.89533997 0 1.6020813 -0.35303116 2.120224 -1.0590992l0 0l4.6754227 0.9318161l0.3203659 -1.37467l-4.7197266 0c0.005378723 -0.010129929 0.010726929 -0.020313263 0.016044617 -0.030548096c0.34558105 -0.6623707 0.5791321 -1.4959431 0.7006607 -2.5007153l0 0l4.372673 0.8714771l0.3203659 -1.37467l-4.6426773 0c0.032348633 -0.4029503 0.04853058 -0.83062553 0.04853058 -1.2830238c0 -0.51849174 -0.046653748 -0.972517 -0.13995361 -1.3620701l0 0l5.10376 1.0209484l0.30119324 -1.3797607l-5.510498 0c-0.18418121 -0.5182829 -0.47200775 -0.8933468 -0.86346436 -1.1251926l0.016426086 -0.18838024c0.34098053 -0.28899288 0.6371765 -0.7829447 0.8885956 -1.4818583l0 0l5.841339 1.1712847l0.31762695 -1.3797607l-6.0872955 0c0.013183594 -0.040125847 0.026245117 -0.08085728 0.03916931 -0.12219334c0.2551651 -0.8106575 0.39222717 -1.711483 0.4111786 -2.7024775l0 0l6.0093384 1.2005243l0.30120087 -1.37467l-6.308426 0c1.1444092E-4 -0.022018433 1.7547607E-4 -0.044080734 1.7547607E-4 -0.06618786c0 -1.9584794 -0.6389084 -2.9377189 -1.9167252 -2.9377189zm13.997051 0l-3.734871 16.546946l2.9106827 0l0.5202484 -2.5355015l2.1193542 0l0.06845093 2.5355015l2.9435425 0l-0.03842926 -0.9675312l0 0l4.4299927 0.8758869l0.13417053 -1.4103088l-4.5853806 0l-0.102500916 -2.580799l0 0l4.8384857 0.9566517l0.13417053 -1.4103088l-4.9906693 0l-0.10223389 -2.5740242l0 0l4.9587326 0.9804268l-0.16703033 -1.4103088l-4.808769 0l-0.10050964 -2.5306826l4.7395096 0.9370842l-0.15059662 -1.4103088l-4.607704 0l-0.0986557 -2.484087l0 0l4.5201645 0.8904886l-0.15060425 -1.4052181l-4.390007 0l-0.09715271 -2.446208l4.3037033 0.8475189l-0.15333557 -1.4052176zm8.849319 0l1.3115845 11.822157l-0.43810272 4.7247887l2.8422241 0l0.42167664 -4.7247887l3.5651093 -11.822157l-2.9435425 0l-1.3964691 6.002723l-0.10131073 0l-0.3696518 -6.002723z" fill-rule="evenodd"/><path stroke="#963700" stroke-width="1.0" stroke-linejoin="round" stroke-linecap="butt" d="m8.556287 3.6466775l7.116522 1.4052176l0.13417053 -1.4052176zm34.37011 0l7.1165237 1.4052176l0.13417053 -1.4052176zm-11.370342 3.004414c0 0 0 0 0 0c5.722046E-6 0 1.1444092E-5 0 1.7166138E-5 0l-1.5258789E-5 0l-1.9073486E-6 0l0 0zm37.32924 -5.068779E-4l6.86187 1.344121l0.30393982 -1.344121zm-60.616516 0l7.132951 1.4052176l0.11774254 -1.4052176zm-0.2847705 3.0039067l7.1329513 1.4052181l0.13417053 -1.4052181zm11.1523285 0l7.1329517 1.4052181l0.13690758 -1.4052181zm35.398674 0l7.1329536 1.4052181l0.13417053 -1.4052181zm11.43737 0.9673605c0.22452545 0 0.336792 0.20874596 0.336792 0.62623787c0 0.9164467 -0.16793823 1.37467 -0.5038223 1.37467l-0.9255066 0l0.18619537 -2.000908zm-58.275883 2.031456l7.132951 1.4103088l0.13690948 -1.4103088zm34.37011 0l7.13295 1.4103088l0.13690948 -1.4103088zm-12.0624485 -1.4357662c0.5950985 0 0.8926468 0.17650127 0.8926468 0.52950287c-0.010953903 0.19007683 -0.016429901 0.29529858 -0.016429901 0.3156643l-0.10131264 1.0946445c-0.06754112 0.6245413 -0.3587017 0.93681145 -0.87347794 0.93681145l-0.5394211 0l0.26834106 -2.8766232zm48.418205 0.21892929l0 4.7553377l-1.2267075 0l0.9912262 -4.7553377zm-71.010635 4.220744l7.1329513 1.4103088l0.13417053 -1.4103088zm58.125282 1.1251926c0.24643707 0 0.3696518 0.24099159 0.3696518 0.72297287c0 1.0623989 -0.19623566 1.5935993 -0.588707 1.5935993l-1.0432434 0l0.21904755 -2.3165722zm-58.41279 1.8787136l7.1356897 1.4103088l0.13417053 -1.4103088zm11.155066 0l7.1329517 1.4103088l0.13417053 -1.4103088zm-11.4398365 3.0344563l7.1329513 1.4103088l0.13417053 -1.4103088zm11.155066 0l7.1329517 1.4103088l0.13417053 -1.4103088zm-1.6672821 -18.0489l-1.8510075 19.550854l3.1981907 0l0.67085457 -7.2551994l1.6613808 0l5.6930943 1.1251926l0.13417053 -1.4103088l-4.733633 0l0.24472046 -2.510911l4.639513 0.9173126l0.13417053 -1.4103088l-4.7256336 0l0.13397789 -1.37467l-2.7272243 0l0.23548317 -2.6271458l2.9627075 0l0.2566223 -1.4432349l0 0l4.3021755 0.84754515l0.11774254 -1.4052176l-4.320759 0l0.5341263 -3.0039072zm10.903154 3.0039072l-1.5498085 16.546946l2.828537 0l0.4517994 -4.816435l0.40525055 0l0.63799477 4.816435l3.1461658 0l-0.16295624 -0.9358463l4.2697334 0.84420204l0.13417053 -1.4103088l-4.5024796 0l-0.45880508 -2.6348553l0 0l5.111885 1.0107079l0.13417053 -1.4103088l-5.3156357 0l-0.16844559 -0.96735954c0.38045502 -0.3981781 0.6952095 -0.916111 0.9442673 -1.5537987l0 0l4.6931534 0.9275608l0.13417053 -1.4103088l-4.6584473 0c0.09518051 -0.30457973 0.17775345 -0.63212585 0.24773026 -0.98263454c0.09922409 -0.49489403 0.18022537 -0.9831505 0.24300766 -1.4647684l0 0l4.31831 0.8538046l0.13417053 -1.4103088l-4.387745 0c0.065006256 -0.63638306 0.09750748 -1.2609243 0.09750748 -1.8736238c0 -0.20697117 -0.004627228 -0.40616035 -0.013885498 -0.5975704l0 0l4.4547234 0.8775959l0.13690567 -1.4052181l-4.630867 0c-0.15754318 -1.5360527 -0.66550446 -2.4830089 -1.5238838 -2.840866l0 0l6.3053513 1.242177l0.117744446 -1.4052176l-7.2506943 0l0.002571106 5.068779E-4l0 0c-0.017936707 -3.3807755E-4 -0.035972595 -5.068779E-4 -0.054109573 -5.068779E-4zm12.129637 0l-1.5498085 16.546946l5.939106 0l0.09351349 -0.981308l0 0l4.4996758 0.8896637l0.13417053 -1.4103088l-4.5842323 0l0.23948288 -2.513155l0 0l4.498089 0.88900757l0.13417053 -1.4103088l-4.5825806 0l0.005821228 -0.06109619l-3.113308 0l0.20262527 -2.128191l2.5054321 0l0.039367676 -0.41133308l0 0l5.0932426 1.0070229l0.13417053 -1.4103088l-5.1888123 0l0.20954132 -2.1892881l-2.524601 0l0.20262527 -2.128192l2.7436523 0l0.20578766 -1.2236567l0 0l4.789913 0.9436312l0.13417053 -1.4052181l-4.8464546 0l0.42048264 -2.5002904l0 0l0 0l0 0l4.5765724 0.9016013l0 0l0.11774063 -1.4052176zm11.337318 -3.0039072l-1.8510056 19.550854l7.11652 0l0.09177017 -0.97520065l0 0l4.4687805 0.88355637l0.13417053 -1.4103088l-4.553383 0l0.23596954 -2.5075512l0 0l0 0l0 0l4.468014 0.8834038l0.13417053 -1.4103088l-4.5526047 0l0.044078827 -0.46840477l-3.9183311 0l0.21905518 -2.3776693l2.0264587 0l6.3346786 1.2524767l0.13417053 -1.4103088l-5.2846146 0l0.25286102 -2.6182404l0 0l5.182354 1.024642l0.13417053 -1.4103088l-5.279278 0l0.1327591 -1.37467l-3.1981888 0l0.23548126 -2.6271458l3.4501038 0l0.26993942 -1.5466843l0 0l4.8272934 0.9509945l0.11774063 -1.4052176l-4.865761 0l0.5242653 -3.0039072zm11.912556 3.0039072l-1.5498085 16.546946l4.476921 0c0.89533997 0 1.6020813 -0.35303116 2.120224 -1.0590992l0 0l4.6754227 0.9318161l0.3203659 -1.37467l-4.7197266 0c0.005378723 -0.010129929 0.010726929 -0.020313263 0.016044617 -0.030548096c0.34558105 -0.6623707 0.5791321 -1.4959431 0.7006607 -2.5007153l0 0l4.372673 0.8714771l0.3203659 -1.37467l-4.6426773 0c0.032348633 -0.4029503 0.04853058 -0.83062553 0.04853058 -1.2830238c0 -0.51849174 -0.046653748 -0.972517 -0.13995361 -1.3620701l0 0l5.10376 1.0209484l0.30119324 -1.3797607l-5.510498 0c-0.18418121 -0.5182829 -0.47200775 -0.8933468 -0.86346436 -1.1251926l0.016426086 -0.18838024c0.34098053 -0.28899288 0.6371765 -0.7829447 0.8885956 -1.4818583l0 0l5.841339 1.1712847l0.31762695 -1.3797607l-6.0872955 0c0.013183594 -0.040125847 0.026245117 -0.08085728 0.03916931 -0.12219334c0.2551651 -0.8106575 0.39222717 -1.711483 0.4111786 -2.7024775l0 0l6.0093384 1.2005243l0.30120087 -1.37467l-6.308426 0c1.1444092E-4 -0.022018433 1.7547607E-4 -0.044080734 1.7547607E-4 -0.06618786c0 -1.9584794 -0.6389084 -2.9377189 -1.9167252 -2.9377189zm13.997051 0l-3.734871 16.546946l2.9106827 0l0.5202484 -2.5355015l2.1193542 0l0.06845093 2.5355015l2.9435425 0l-0.03842926 -0.9675312l0 0l4.4299927 0.8758869l0.13417053 -1.4103088l-4.5853806 0l-0.102500916 -2.580799l0 0l4.8384857 0.9566517l0.13417053 -1.4103088l-4.9906693 0l-0.10223389 -2.5740242l0 0l4.9587326 0.9804268l-0.16703033 -1.4103088l-4.808769 0l-0.10050964 -2.5306826l4.7395096 0.9370842l-0.15059662 -1.4103088l-4.607704 0l-0.0986557 -2.484087l0 0l4.5201645 0.8904886l-0.15060425 -1.4052181l-4.390007 0l-0.09715271 -2.446208l4.3037033 0.8475189l-0.15333557 -1.4052176zm8.849319 0l1.3115845 11.822157l-0.43810272 4.7247887l2.8422241 0l0.42167664 -4.7247887l3.5651093 -11.822157l-2.9435425 0l-1.3964691 6.002723l-0.10131073 0l-0.3696518 -6.002723z" fill-rule="evenodd"/></g></g></g></svg>